<svg width="66" height="29" viewBox="0 0 66 29" fill="none" xmlns="http://www.w3.org/2000/svg">
<path d="M17.145 14.48C19.585 15.88 20.825 18.04 20.825 20.88C20.825 23.24 19.985 25.2 18.305 26.72C16.625 28.24 14.545 29 12.105 29H0.225V0.999998H11.265C13.665 0.999998 15.665 1.76 17.305 3.24C18.945 4.72 19.785 6.6 19.785 8.88C19.785 11.2 18.905 13.08 17.145 14.48ZM11.265 6.16H5.745V12.32H11.265C12.985 12.32 14.265 11 14.265 9.24C14.265 7.48 13.025 6.16 11.265 6.16ZM5.745 23.84H12.105C13.985 23.84 15.345 22.44 15.345 20.52C15.345 18.64 13.985 17.24 12.105 17.24H5.745V23.84ZM40.7063 29H21.9863V24.88L31.5463 15.04C33.6663 12.8 34.7463 10.92 34.7463 9.44C34.7463 7.24 33.2263 5.8 31.1063 5.8C28.9863 5.8 27.4263 6.88 26.4263 9.08L21.7863 6.36C23.5462 2.52 27.0663 0.439998 31.0263 0.439998C33.5463 0.439998 35.7463 1.24 37.5463 2.84C39.3463 4.4 40.2663 6.56 40.2663 9.24C40.2663 12.16 38.7463 15.12 35.6663 18.2L30.1863 23.68H40.7063V29ZM61.6763 14.48C64.1163 15.88 65.3563 18.04 65.3563 20.88C65.3563 23.24 64.5163 25.2 62.8363 26.72C61.1563 28.24 59.0763 29 56.6363 29H44.7563V0.999998H55.7963C58.1963 0.999998 60.1963 1.76 61.8363 3.24C63.4763 4.72 64.3163 6.6 64.3163 8.88C64.3163 11.2 63.4363 13.08 61.6763 14.48ZM55.7963 6.16H50.2763V12.32H55.7963C57.5163 12.32 58.7963 11 58.7963 9.24C58.7963 7.48 57.5563 6.16 55.7963 6.16ZM50.2763 23.84H56.6363C58.5163 23.84 59.8763 22.44 59.8763 20.52C59.8763 18.64 58.5163 17.24 56.6363 17.24H50.2763V23.84Z" fill="black"/>
</svg>
